<svg data-v-0ebce1fa="" viewBox="0 0 220 220" xmlns="http://www.w3.org/2000/svg" class="sneaker__ar"><g fill="none" fill-rule="evenodd"><path fill="#000" d="M110 0l95.263 55v110L110 220l-95.263-55V55z"></path><path d="M46.8 103c1.6 0 2.8-1.3 2.8-2.8V83l7.7 3.9c.4.2.8.3 1.3.3 1 0 2-.6 2.5-1.6.7-1.4.1-3.1-1.3-3.8l-7-3.5L71.6 68c1.4-.8 1.9-2.5 1.1-3.8-.8-1.4-2.5-1.9-3.8-1.1L45.5 75.9c-.9.5-1.5 1.5-1.5 2.5v21.8c0 1.5 1.3 2.8 2.8 2.8zM87.8 58.8c.5 0 .9-.1 1.4-.4l17.8-9.8v7.6c0 1.6 1.3 2.8 2.8 2.8 1.5 0 2.8-1.3 2.8-2.8v-7.6l17.8 9.8c.4.2.9.4 1.4.4 1 0 2-.5 2.5-1.5.8-1.4.3-3.1-1.1-3.8l-22-12.1c-.2-.1-.4-.2-.7-.3-.1 0-.3 0-.4-.1h-.6c-.1 0-.3 0-.4.1-.2.1-.5.1-.7.3l-22 12.1c-1.4.8-1.9 2.5-1.1 3.8.5.9 1.5 1.5 2.5 1.5zM174.1 75.9L150.7 63c-1.4-.8-3.1-.3-3.8 1.1-.8 1.4-.3 3.1 1.1 3.8l18.7 10.3-7 3.5c-1.4.7-2 2.4-1.3 3.8.5 1 1.5 1.6 2.5 1.6.4 0 .9-.1 1.3-.3l7.7-3.9v17.2c0 1.6 1.3 2.8 2.8 2.8 1.5 0 2.8-1.3 2.8-2.8V78.4c.1-1-.5-2-1.4-2.5zM130.5 161.9l-17.8 9.8v-7.6c0-1.6-1.3-2.8-2.8-2.8-1.5 0-2.8 1.3-2.8 2.8v7.6l-17.8-9.8c-1.4-.8-3.1-.3-3.8 1.1-.8 1.4-.3 3.1 1.1 3.8l22 12.1c.4.2.9.4 1.4.4.5 0 .9-.1 1.4-.4l22-12.1c1.4-.8 1.9-2.5 1.1-3.8-1-1.4-2.7-1.9-4-1.1zM172.7 117.3c-1.6 0-2.8 1.3-2.8 2.8v17.2l-7.7-3.9c-1.4-.7-3.1-.1-3.8 1.3-.7 1.4-.1 3.1 1.3 3.8l7 3.5-18.7 10.3c-1.4.8-1.9 2.5-1.1 3.8.5.9 1.5 1.5 2.5 1.5.5 0 .9-.1 1.4-.4l23.4-12.9c.9-.5 1.5-1.5 1.5-2.5v-21.7c-.1-1.6-1.4-2.8-3-2.8zM71.6 152.3L52.9 142l7-3.5c1.4-.7 2-2.4 1.3-3.8s-2.4-2-3.8-1.3l-7.7 3.9v-17.2c0-1.6-1.3-2.8-2.8-2.8-1.5 0-2.9 1.2-2.9 2.8v21.8c0 1 .6 2 1.5 2.5l23.4 12.9c.4.2.9.4 1.4.4 1 0 2-.5 2.5-1.5.7-1.5.2-3.2-1.2-3.9zM113.6 84.9c-.8-.3-1.4.6-.9 1.2 5.9 8-1 6.1-2.8 5.8-8.9-1.4-30.3-7.9-40.6-11.1-.9-.3-1.5.9-.7 1.5l43.6 28.4c.7.5 1.6-.4 1.1-1.1-6.2-10.6 4.2-5.6 6-4.6 7.3 3.9 25.8 14.6 32.8 18.7.7.4 1.5-.4 1.1-1.1l-13.5-23c-2.3-3.9-5.8-6.8-10-8.4l-16.1-6.3zM100.1 125.5h-1.6c-.4 0-.7.2-.8.6l-7 19.3c0 .1-.1.2-.1.3v1.2c0 .5.4.9.9.9H93c.4 0 .7-.2.8-.6l1.7-4.8h7.3l1.7 4.8c.1.4.5.6.8.6h1.5c.5 0 .9-.4.9-.9v-1.2c0-.1 0-.2-.1-.3l-6.9-19.3c.1-.3-.3-.6-.6-.6zm-3.5 13.6l2.6-8 2.6 8h-5.2zM126.9 136.5c.8-1 1.2-2.4 1.2-4.2 0-1.3-.2-2.4-.5-3.2-.3-.9-.9-1.6-1.5-2.2-.7-.5-1.5-.9-2.5-1.1-1-.2-2.1-.3-3.4-.3h-6.5c-.5 0-.9.4-.9.9v20.5c0 .5.4.9.9.9h1.9c.5 0 .9-.4.9-.9v-7.8h4l4.3 8.2c.2.3.5.5.8.5h1.6c.5 0 .9-.4.9-.9v-1.2c0-.2 0-.3-.1-.4l-3.8-6.9c1.1-.4 2.1-1 2.7-1.9zm-2.8-2.4c-.2.4-.4.7-.7 1-.3.2-.7.4-1.2.5-.6.1-1.2.2-2 .2h-3.6v-6.9h3.6c.8 0 1.4 0 2 .1.5.1.9.3 1.2.5.3.2.5.6.7 1 .2.5.3 1.1.3 1.9 0 .7-.1 1.3-.3 1.7z" fill="#FFF" fill-rule="nonzero"></path></g></svg>