<svg data-v-7701bdd1="" width="129" height="22" fill="none" xmlns="http://www.w3.org/2000/svg" class="footer__logo"><g clip-path="url(#clip0_0_75274)"><path fill-rule="evenodd" clip-rule="evenodd" d="M0 0s1.026.319 2.649.808l.436.132.702.21.497.148c1.608.479 3.533 1.043 5.534 1.608l.634.179c.424.119.85.237 1.277.355l.639.175c3.618.988 7.151 1.868 9.213 2.16.201.029.532.099.884.14l.132.013c1.243.112 2.576-.245-.638-4.102l8.958 3.326c1.881.698 3.48 2.054 4.529 3.841L42.789 21.5s-3.576-2.087-7.544-4.366l-.543-.312-.82-.47c-3.012-1.723-6.041-3.434-7.744-4.332a11.719 11.719 0 00-1.23-.554l-.148-.055a7.683 7.683 0 00-.382-.127l-.154-.044c-1.612-.443-3.103-.114.174 4.63L0 0zm57.298 4.717c.167-.01 4.012-.177 4.012 3.125v.053c-.003.333-.1 2.135-1.778 2.653 0 0 2.022.668 2.015 2.864l-.002.806V15.824l.002.07v.036h-3.734V14.06c-.003-.103-.084-1.653-1.912-1.653h-6.503v3.524H45.5V4.717h11.797zm21.187-.004v3.045h-6.096v8.172h-3.845V7.758H62.44V4.713h16.046zm49.921 0v3.045h-6.096v8.172h-3.844V7.758h-6.106V4.713h16.046zm-34.767 0V7.76H83.106v1.635h6.87v2.85h-6.87v3.684h-3.73V4.717h1.644v-.004h12.62zm4.767 0v3.771l6.091-3.771 6.24.02-8.224 5.076 8.955 6.121h-6.213l-6.849-4.7v4.7h-3.875V4.713h3.875zM50.956 7.76h-1.558v1.922h6.972s1.122.117 1.122-1.022c0-.601-.346-.869-1.009-.884-.271-.007-1.506-.01-2.871-.013H52.923l-.46-.001h-.228l-1.08-.001h-.199z" fill="#fff"></path></g><defs><clipPath id="clip0_0_75274"><path fill="#fff" d="M0 0h129v21.5H0z"></path></clipPath></defs></svg>