<svg data-v-2ff15ff0="" width="46" height="24" fill="none" xmlns="http://www.w3.org/2000/svg"><path fill-rule="evenodd" clip-rule="evenodd" d="M0 0s1.103.343 2.848.869l.469.141.755.226.534.16c1.728.514 3.798 1.12 5.949 1.728l.682.192c.455.128.914.255 1.372.382l.687.188c3.89 1.062 7.688 2.008 9.904 2.322.217.031.572.106.95.15l.143.015c1.336.12 2.769-.264-.686-4.41l9.63 3.575c2.022.751 3.74 2.208 4.868 4.13L46 23.113s-3.844-2.243-8.11-4.693l-.584-.336-.882-.505c-3.238-1.853-6.494-3.692-8.325-4.657-.227-.12-.739-.374-1.321-.595l-.16-.06a8.352 8.352 0 00-.411-.136l-.165-.048c-1.733-.476-3.336-.123.187 4.977L0 0z" fill="#000"></path></svg>